<svg id="Layer_1" data-name="Layer 1" xmlns="http://www.w3.org/2000/svg" viewBox="0 0 670.99 150"><title>code-graphic</title><path d="M179.53,308.34l92.8-47.8v13.8l-78.2,39.2v.4l78.2,39.2v13.8l-92.8-47.8Z" transform="translate(-179.53 -224.94)"/><path d="M285.33,374.94l55.8-145h13.6l-56,145Z" transform="translate(-179.53 -224.94)"/><path d="M368.72,224.94h17.6v60.4h.4a32.66,32.66,0,0,1,12.6-12.4,36.22,36.22,0,0,1,18-5c13,0,33.8,8,33.8,41.4v57.6h-17.6v-55.6c0-15.6-5.8-28.8-22.4-28.8-11.4,0-20.4,8-23.6,17.6-1,2.4-1.2,5-1.2,8.4v58.4h-17.6Z" transform="translate(-179.53 -224.94)"/><path d="M500.12,242.34v27.8h25.2v13.4h-25.2v52.2c0,12,3.4,18.8,13.2,18.8a39.15,39.15,0,0,0,10.2-1.2l.8,13.2c-3.4,1.4-8.8,2.4-15.6,2.4-8.2,0-14.8-2.6-19-7.4-5-5.2-6.8-13.8-6.8-25.2v-52.8h-15v-13.4h15v-23.2Z" transform="translate(-179.53 -224.94)"/><path d="M545.12,296.34c0-10-.2-18.2-.8-26.2h15.4l.8,15.6h.6c5.4-9.2,14.4-17.8,30.4-17.8,13.2,0,23.2,8,27.4,19.4h.4a39.88,39.88,0,0,1,10.8-12.6c5.8-4.4,12.2-6.8,21.4-6.8,12.8,0,31.8,8.4,31.8,42v57h-17.2v-54.8c0-18.6-6.8-29.8-21-29.8-10,0-17.8,7.4-20.8,16a29,29,0,0,0-1.4,8.8v59.8h-17.2v-58c0-15.4-6.8-26.6-20.2-26.6-11,0-19,8.8-21.8,17.6a24.26,24.26,0,0,0-1.4,8.6v58.4h-17.2Z" transform="translate(-179.53 -224.94)"/><path d="M711.92,224.94h17.6v142h-17.6Z" transform="translate(-179.53 -224.94)"/><path d="M850.52,319.34l-92.8,47.6v-13.8l78.8-39.2v-.4l-78.8-39.2v-13.8l92.8,47.6Z" transform="translate(-179.53 -224.94)"/></svg>