<svg id="Layer_1" data-name="Layer 1" xmlns="http://www.w3.org/2000/svg" viewBox="0 0 536.39 150"><title>div</title><path d="M351.8,300.66l92.8-47.8v13.8l-78.2,39.2v.4l78.2,39.2v13.8l-92.8-47.8Z" transform="translate(-351.8 -217.26)"/><path d="M457.6,367.26l55.8-145H527l-56,145Z" transform="translate(-351.8 -217.26)"/><path d="M624.6,217.26v117c0,8.6.2,18.4.8,25H609.6l-.8-16.8h-.4c-5.4,10.8-17.2,19-33,19-23.4,0-41.4-19.8-41.4-49.2-.2-32.2,19.8-52,43.4-52,14.8,0,24.8,7,29.2,14.8h.4v-57.8ZM607,301.86a31.07,31.07,0,0,0-.8-7.4c-2.6-11.2-12.2-20.4-25.4-20.4-18.2,0-29,16-29,37.4,0,19.6,9.6,35.8,28.6,35.8,11.8,0,22.6-7.8,25.8-21a30.57,30.57,0,0,0,.8-7.6Z" transform="translate(-351.8 -217.26)"/><path d="M673.4,235.26c.2,6-4.2,10.8-11.2,10.8a10.47,10.47,0,0,1-10.6-10.8,10.72,10.72,0,0,1,11-11C669.2,224.26,673.4,229.06,673.4,235.26Zm-19.6,124v-96.8h17.6v96.8Z" transform="translate(-351.8 -217.26)"/><path d="M707.39,262.46l19,54.4a248.94,248.94,0,0,1,7.8,24.8h.6c2.2-8,5-16,8.2-24.8l18.8-54.4h18.4l-38,96.8h-16.8l-36.8-96.8Z" transform="translate(-351.8 -217.26)"/><path d="M888.19,311.66l-92.8,47.6v-13.8l78.8-39.2v-.4l-78.8-39.2v-13.8l92.8,47.6Z" transform="translate(-351.8 -217.26)"/></svg>