<svg id="Layer_1" data-name="Layer 1" xmlns="http://www.w3.org/2000/svg" viewBox="0 0 394.39 176.6"><title>p-tag</title><path d="M371.8,306.66l92.8-47.8v13.8l-78.2,39.2v.4l78.2,39.2v13.8l-92.8-47.8Z" transform="translate(-371.8 -228.26)"/><path d="M477.6,373.26l55.8-145H547l-56,145Z" transform="translate(-371.8 -228.26)"/><path d="M561,300.06c0-12.4-.4-22.4-.8-31.6H576l.8,16.6h.4c7.2-11.8,18.6-18.8,34.4-18.8,23.4,0,41,19.8,41,49.2,0,34.8-21.2,52-44,52-12.8,0-24-5.6-29.8-15.2h-.4v52.6H561Zm17.4,25.8a39.63,39.63,0,0,0,.8,7.2,27.16,27.16,0,0,0,26.4,20.6c18.6,0,29.4-15.2,29.4-37.4,0-19.4-10.2-36-28.8-36-12,0-23.2,8.6-26.6,21.8a28.54,28.54,0,0,0-1.2,7.2Z" transform="translate(-371.8 -228.26)"/><path d="M766.19,317.66l-92.8,47.6v-13.8l78.8-39.2v-.4l-78.8-39.2v-13.8l92.8,47.6Z" transform="translate(-371.8 -228.26)"/></svg>